<?xml version="1.0" encoding="UTF-8"?> <svg xmlns="http://www.w3.org/2000/svg" width="60" height="44" viewBox="0 0 60 44" fill="none"><path d="M57.9047 36.4118C57.9047 41.1176 60.3691 40.2437 57.9047 42.5294C42.3397 42.0851 32.6027 42.5525 19.113 42.9969C18.6169 41.6673 20.1507 43.0742 16 42.9969C18.0753 35.8872 27.5594 27 41.8187 27C47.2592 27 54.3496 28.8978 58.512 30.8095C57.8959 34.619 57.9047 34.6135 57.9047 36.4118Z" fill="url(#paint0_linear)"></path><path d="M55 0H5C3.67437 0.00148882 2.40347 0.528751 1.46611 1.46611C0.528751 2.40347 0.00148882 3.67437 0 5V39C0.00148882 40.3256 0.528751 41.5965 1.46611 42.5339C2.40347 43.4712 3.67437 43.9985 5 44H55C56.3256 43.9985 57.5965 43.4712 58.5339 42.5339C59.4712 41.5965 59.9985 40.3256 60 39V5C59.9985 3.67437 59.4712 2.40347 58.5339 1.46611C57.5965 0.528751 56.3256 0.00148882 55 0ZM5 2H55C55.7954 2.00093 56.5579 2.31729 57.1203 2.8797C57.6827 3.44211 57.9991 4.20463 58 5V8H2V5C2.00093 4.20463 2.31729 3.44211 2.8797 2.8797C3.44211 2.31729 4.20463 2.00093 5 2ZM55 42H5C4.20463 41.9991 3.44211 41.6827 2.8797 41.1203C2.31729 40.5579 2.00093 39.7954 2 39V10H58V39C57.9991 39.7954 57.6827 40.5579 57.1203 41.1203C56.5579 41.6827 55.7954 41.9991 55 42Z" fill="black"></path><path d="M6 4H8V6H6V4Z" fill="black"></path><path d="M10 4H12V6H10V4Z" fill="black"></path><path d="M14 4H16V6H14V4Z" fill="black"></path><path d="M30 4H54V6H30V4Z" fill="black"></path><path d="M40.293 16.293L35.8861 20.7008L33.3001 18.115L37.707 13.707L36.2927 12.293L31.8859 16.7008L29.6427 14.4576C29.5499 14.3647 29.4396 14.291 29.3183 14.2408C29.1969 14.1905 29.0669 14.1646 28.9355 14.1646C28.8042 14.1646 28.6742 14.1905 28.5528 14.2408C28.4315 14.291 28.3212 14.3647 28.2284 14.4576L23.2784 19.4076C21.9004 20.7852 21.0728 22.6185 20.9509 24.5632C20.829 26.5078 21.4213 28.4301 22.6165 29.969L14.2925 38.293L15.7067 39.7072L24.0307 31.3832C25.5697 32.5783 27.492 33.1705 29.4367 33.0485C31.3813 32.9265 33.2146 32.0988 34.5921 30.7207L39.5421 25.7707C39.635 25.6779 39.7087 25.5676 39.7589 25.4463C39.8092 25.3249 39.8351 25.1949 39.8351 25.0635C39.8351 24.9322 39.8092 24.8021 39.7589 24.6808C39.7087 24.5595 39.635 24.4492 39.5421 24.3563L37.3001 22.115L41.707 17.707L40.293 16.293ZM33.1784 29.307C32.0532 30.4321 30.5271 31.0643 28.9358 31.0643C27.3445 31.0643 25.8184 30.4321 24.6932 29.307C23.5681 28.1818 22.936 26.6557 22.936 25.0644C22.936 23.4731 23.5681 21.9471 24.6932 20.8218L26.0501 19.4646L33.2927 26.7071L34.707 25.2928L27.4646 18.05L28.9357 16.5787L37.4211 25.0641L33.1784 29.307Z" fill="#FF1744"></path><defs><linearGradient id="paint0_linear" x1="47.4512" y1="41.4" x2="45.5904" y2="25.0233" gradientUnits="userSpaceOnUse"><stop stop-color="#2979FF"></stop><stop offset="1" stop-color="#2979FF" stop-opacity="0"></stop></linearGradient></defs></svg> 