<?xml version="1.0" encoding="utf-8"?>
<!-- Generator: Adobe Illustrator 24.3.0, SVG Export Plug-In . SVG Version: 6.00 Build 0)  -->
<svg version="1.1" id="Layer_1" xmlns="http://www.w3.org/2000/svg" xmlns:xlink="http://www.w3.org/1999/xlink" x="0px" y="0px"
	 viewBox="0 0 1509.1 331.1" style="enable-background:new 0 0 1509.1 331.1;" xml:space="preserve">
<style type="text/css">
	.st0{fill:#FF3D00;}
</style>
<g>
	<g>
		<path class="st0" d="M293.5,45.5L293.5,45.5v194h113.8v-37.7h-72.5v-115C334.8,64,316.3,45.5,293.5,45.5z"/>
		<rect x="429.1" y="107.3" class="st0" width="39.5" height="132.2"/>
		<path class="st0" d="M754.7,182.4c0,12.7-6,24.9-22.1,24.9c-15.3,0-20.5-11.7-20.5-24.4v-75.6h-39.5v86.8
			c0,28.1,17.1,48.8,46.2,48.8c14,0,28.6-5.7,37.9-19.2v15.8h37.4V107.3h-39.5L754.7,182.4L754.7,182.4z"/>
		<rect x="828.7" y="107.3" class="st0" width="39.5" height="132.2"/>
		<path class="st0" d="M1306.2,157.5l-10.7-2.3c-11.4-2.6-16.4-4.9-16.4-11.7c0-6.5,6.8-9.4,14.5-9.4c7.5,0,15.3,2.3,15.3,13.5h40.3
			c-2.3-29.9-24.9-43.6-55.1-43.6s-55.1,15.1-55.1,42.3c0,27,20.5,36.1,43.9,40.8l12.7,2.6c9.6,2.1,15.1,4.9,15.1,12.2
			c0,7.5-6.5,11.2-16.6,11.2c-10.4,0-18.4-4.4-18.4-16.6h-41.6c1.8,32.7,26.5,46.5,61,46.5c32,0,56.4-14.8,56.4-44.4
			C1351.7,172,1332.2,163.2,1306.2,157.5z"/>
		<path class="st0" d="M1509.1,171.5c0-37.9-26.2-67.5-69.1-67.5c-40.8,0-70.7,31.2-70.7,69.6s28.1,69.4,70.1,69.4
			c35.1,0,59-18.2,67-46.2h-38.2c-5.7,9.9-14.8,14.5-28.3,14.5c-17.9,0-29.6-11.2-33-27.8H1509L1509.1,171.5L1509.1,171.5z
			 M1408.9,157.5c4.7-13,15.6-21.6,31.2-21.6s26.8,8.1,30.9,21.6H1408.9z"/>
		<path class="st0" d="M1171.9,114.7c-10.7-6.5-23.2-10.3-36.6-10.3c-38.7,0-70.2,31.4-70.2,70.2c0,38.7,31.4,70.2,70.2,70.2
			c13.4,0,26-3.8,36.6-10.3v5.1h37.7V107.3h-37.7V114.7z M1135.3,209.6c-19.3,0-35-15.7-35-35s15.7-35,35-35s35,15.7,35,35
			S1154.7,209.6,1135.3,209.6z"/>
		<path class="st0" d="M981.6,104.6c-15.1-1-29.3,2.9-41.1,10.2v-50c0-20.8-16.9-37.7-37.7-37.7l0,0v212.5h37.7v-5.1
			c10.7,6.5,23.2,10.3,36.6,10.3c40.4,0,72.8-34.2,70-75.2C1044.6,134.8,1016.4,106.8,981.6,104.6z M977,209.6
			c-19.3,0-35-15.7-35-35s15.7-35,35-35s35,15.7,35,35S996.4,209.6,977,209.6z"/>
		<path class="st0" d="M448.9,45.5c-12.8,0-23.2,10.4-23.2,23.2s10.4,23.2,23.2,23.2c12.8,0,23.2-10.4,23.2-23.2
			S461.7,45.5,448.9,45.5z"/>
		<path class="st0" d="M848.5,45.5c-12.8,0-23.2,10.4-23.2,23.2s10.4,23.2,23.2,23.2s23.2-10.4,23.2-23.2S861.3,45.5,848.5,45.5z"/>
		<path class="st0" d="M602.2,107.3v7.8c-11.9-7.4-26.1-11.4-41.4-10.6c-34.9,2-63.4,30.2-65.8,65.1c-2.8,41,29.6,75.1,70,75.1
			c12.7,0,24.5-3.4,34.8-9.2v56.2c0,21.8,17.7,39.5,39.5,39.5l0,0V285V158.2v-50.9C639.3,107.3,602.2,107.3,602.2,107.3z
			 M566.3,209.6c-19.3,0-35-15.7-35-35s15.7-35,35-35s35,15.7,35,35S585.6,209.6,566.3,209.6z"/>
		<g>
			<ellipse class="st0" cx="100.7" cy="40.4" rx="100.7" ry="40.4"/>
			<path class="st0" d="M103.1,217.9c-32.2,7.7-65.3,15.7-86.5,29.7C5.9,241,0,233.4,0,226.2c0-32,53.4-44.1,105-55.7
				c37.2-8.4,75.2-17,96.4-34.4v28.2C201.5,194.3,151.4,206.3,103.1,217.9z"/>
			<path class="st0" d="M101.3,153.7C62.1,162.6,22,171.7,0,190.6v-6.2c0-55.7,61.1-70,120.1-83.8c42.9-10,63.8-15.3,81.3-29.4v31.2
				C201.5,131.1,150.5,142.6,101.3,153.7z"/>
			<path class="st0" d="M201.5,199.2c-20.9,17.7-58.1,26.6-94.4,35.3c-26,6.2-52.7,12.7-71.6,21.9c17.1,6.1,39.5,10.2,65.3,10.2
				c58.7,0,100.7-21.1,100.7-40.4V199.2z"/>
		</g>
	</g>
</g>
</svg>
